# xmcd CD database file
#
# Track frame offsets:
#	150
#	13226
#	33333
#	50278
#	65344
#	81453
#	96288
#	109690
#	126000
#	141054
#	157737
#
# Disc length: 2428 seconds
#
# Revision: 0
# Processed by: cddbd v1.4PL0 Copyright (c) Steve Scherf et al.
# Submitted via: CDex 1.40Release
#
DISCID=89097a0b
DTITLE=The Westerleys - A Blessing And A Curse
DYEAR=1998
DGENRE=Country
TTITLE0=Devil's Got Your Name
TTITLE1=High
TTITLE2=Graduation Day
TTITLE3=Tell Me The Truth
TTITLE4=Love's Not That Hard
TTITLE5=Diggin' A Hole
TTITLE6=Feels Good To Lose You
TTITLE7=Tear My Stillhouse Down
TTITLE8=Dying On The Vine
TTITLE9=Anytime With You
TTITLE10=Powder Blue Polyester Nightgown
EXTD=YEAR: 1998 ID3G: 2
EXTT0=
EXTT1=
EXTT2=
EXTT3=
EXTT4=
EXTT5=
EXTT6=
EXTT7=
EXTT8=
EXTT9=
EXTT10=
PLAYORDER=
